<?xml version="1.0" standalone="no"?>
<!DOCTYPE svg PUBLIC "-//W3C//DTD SVG 20010904//EN"
 "http://www.w3.org/TR/2001/REC-SVG-20010904/DTD/svg10.dtd">
<svg version="1.0" xmlns="http://www.w3.org/2000/svg"
 width="512.000000pt" height="512.000000pt" viewBox="0 0 512.000000 512.000000"
 preserveAspectRatio="xMidYMid meet">
<metadata>
Created by potrace 1.11, written by Peter Selinger 2001-2013
</metadata>
<g transform="translate(0.000000,512.000000) scale(0.100000,-0.100000)"
fill="#000000" stroke="none">
<path d="M1710 3540 c-473 -5 -496 -6 -525 -25 -48 -31 -80 -78 -86 -125 l-4
-25 185 -1 c168 -1 189 -3 227 -22 122 -63 144 -219 44 -319 -45 -46 -88 -53
-310 -53 l-201 0 -1 -47 c0 -27 -2 -60 -4 -75 -3 -23 0 -28 18 -28 183 -1 216
-6 258 -35 102 -73 118 -215 35 -298 -49 -49 -83 -60 -191 -63 -55 -1 -107 -3
-116 -3 -14 -1 -16 -13 -15 -73 l2 -72 44 -4 c122 -10 209 -125 181 -238 -22
-87 -79 -139 -169 -153 -26 -4 -46 -11 -46 -17 1 -5 5 -31 9 -59 6 -48 31
-101 59 -124 12 -10 126 -15 248 -12 17 1 20 23 6 46 -3 6 -5 48 -4 95 4 149
65 264 185 348 81 57 151 77 256 75 233 -4 417 -193 417 -428 0 -44 -5 -92
-11 -107 l-11 -28 68 0 c109 -1 1322 -1 1388 -1 l62 1 -13 36 c-16 46 -10 177
10 234 89 251 365 365 601 250 72 -35 150 -109 187 -179 48 -88 65 -214 42
-316 l-7 -31 69 3 c103 5 126 11 156 38 61 58 75 132 70 392 -5 329 -12 364
-95 439 -41 38 -183 114 -212 114 -7 0 -16 4 -22 9 -5 4 -81 37 -169 71 l-160
62 -235 316 c-129 174 -251 332 -270 352 -20 22 -60 47 -95 60 l-60 24 -650 0
c-357 1 -873 -1 -1145 -4z m1846 -236 c58 -38 138 -119 209 -209 65 -83 205
-284 205 -294 0 -6 -835 -7 -855 -1 -5 1 -12 1 -15 0 -41 -16 -40 -23 -40 261
l0 269 229 0 228 0 39 -26z"/>
<path d="M354 3249 c-28 -10 -54 -47 -54 -77 0 -32 30 -80 55 -89 34 -11 1067
-10 1095 1 44 19 54 36 55 92 1 29 -1 52 -4 52 -3 -1 -22 6 -42 15 -31 14
-101 16 -560 15 -288 0 -534 -4 -545 -9z"/>
<path d="M623 2712 c-12 -2 -33 -15 -47 -29 -37 -36 -35 -85 3 -124 l29 -29
306 0 c206 0 313 4 330 11 31 14 56 63 50 98 -5 30 -47 71 -72 71 -98 3 -582
4 -599 2z"/>
<path d="M789 2155 c-65 -35 -62 -128 5 -158 40 -18 280 -17 313 1 52 29 59
99 14 141 -30 28 -31 28 -170 28 -88 0 -148 -5 -162 -12z"/>
<path d="M1693 2096 c-91 -30 -148 -81 -188 -169 -53 -115 -30 -240 61 -333
68 -70 127 -96 219 -96 112 1 225 74 275 178 33 68 37 176 9 243 -27 63 -91
131 -154 161 -60 29 -159 36 -222 16z"/>
<path d="M4013 2092 c-176 -62 -253 -258 -168 -426 80 -159 272 -214 427 -123
57 33 88 70 123 144 24 50 27 66 23 132 -3 45 -12 90 -23 111 -75 147 -232
214 -382 162z"/>
</g>
</svg>
